<svg xmlns="http://www.w3.org/2000/svg" width="20.537" height="20.537" viewBox="0 0 20.537 20.537"><defs><style>.a{fill:none;}.b,.c{fill:#01d167;}.b{stroke:rgba(0,0,0,0);stroke-miterlimit:10;}</style></defs><path class="a" d="M0,0H20.537V20.537H0Z"/><path class="b" d="M9.413,12.839a10.04,10.04,0,0,1-5.756-1.8A10.136,10.136,0,0,1,0,6.418a10.112,10.112,0,0,1,18.824,0,10.139,10.139,0,0,1-3.656,4.619A10.042,10.042,0,0,1,9.413,12.839Zm0-10.7a4.278,4.278,0,1,0,4.279,4.276A4.283,4.283,0,0,0,9.413,2.142Z" transform="translate(0.856 3.849)"/><path class="c" d="M2.567,0A2.567,2.567,0,1,0,5.134,2.567,2.564,2.564,0,0,0,2.567,0Z" transform="translate(7.701 7.701)"/></svg>